HIERARCHY
ROOT Hips
{
  OFFSET 279.157 85.6768 304.565
  CHANNELS 6 Xposition Yposition Zposition Zrotation Xrotation Yrotation
  JOINT LeftUpLeg
  {
    OFFSET 8.64259 1.95398 -2.38835
    CHANNELS 3 Zrotation Xrotation Yrotation
    JOINT LeftLeg
    {
      OFFSET 43.7702 0 0
      CHANNELS 3 Zrotation Xrotation Yrotation
      JOINT LeftFoot
      {
        OFFSET 40.6238 0 0
        CHANNELS 3 Zrotation Xrotation Yrotation
        JOINT LeftToeBase
        {
          OFFSET 12.7242 0 0
          CHANNELS 3 Zrotation Xrotation Yrotation
          End Site
          {
            OFFSET 0 0 0
          }
        }
      }
    }
  }
  JOINT RightUpLeg
  {
    OFFSET -8.2249 1.95398 -2.59336
    CHANNELS 3 Zrotation Xrotation Yrotation
    JOINT RightLeg
    {
      OFFSET 43.5653 0 0
      CHANNELS 3 Zrotation Xrotation Yrotation
      JOINT RightFoot
      {
        OFFSET 40.6238 0 0
        CHANNELS 3 Zrotation Xrotation Yrotation
        JOINT RightToeBase
        {
          OFFSET 12.7242 0 0
          CHANNELS 3 Zrotation Xrotation Yrotation
          End Site
          {
            OFFSET 0 0 0
          }
        }
      }
    }
  }
  JOINT Spine
  {
    OFFSET 0.165834 0.87714 6.61349
    CHANNELS 3 Zrotation Xrotation Yrotation
    JOINT Spine1
    {
      OFFSET 7.38963 1.71661e-005 0
      CHANNELS 3 Zrotation Xrotation Yrotation
      JOINT Spine2
      {
        OFFSET 11.9445 1.14441e-005 0
        CHANNELS 3 Zrotation Xrotation Yrotation
        JOINT Spine3
        {
          OFFSET 14.7254 4.19617e-005 0
          CHANNELS 3 Zrotation Xrotation Yrotation
          JOINT Spine4
          {
            OFFSET 10.9679 0 0
            CHANNELS 3 Zrotation Xrotation Yrotation
            JOINT RightShoulder
            {
              OFFSET 2.46616 -1.6653 3.69651
              CHANNELS 3 Zrotation Xrotation Yrotation
              JOINT RightArm
              {
                OFFSET 13.0012 0 0
                CHANNELS 3 Zrotation Xrotation Yrotation
                JOINT RightForeArm
                {
                  OFFSET 28.7848 1.52588e-005 0
                  CHANNELS 3 Zrotation Xrotation Yrotation
                  JOINT RightHand
                  {
                    OFFSET 26.5688 1.52588e-005 0
                    CHANNELS 3 Zrotation Xrotation Yrotation
                    End Site
                    {
                      OFFSET 0 0 0
                    }
                  }
                }
              }
            }
            JOINT LeftShoulder
            {
              OFFSET 2.38034 -1.29275 -3.7523
              CHANNELS 3 Zrotation Xrotation Yrotation
              JOINT LeftArm
              {
                OFFSET 16.3182 6.10351e-005 0
                CHANNELS 3 Zrotation Xrotation Yrotation
                JOINT LeftForeArm
                {
                  OFFSET 27.0901 0 0
                  CHANNELS 3 Zrotation Xrotation Yrotation
                  JOINT LeftHand
                  {
                    OFFSET 24.5451 1.52588e-005 0
                    CHANNELS 3 Zrotation Xrotation Yrotation
                    End Site
                    {
                      OFFSET 0 0 0
                    }
                  }
                }
              }
            }
            JOINT Neck
            {
              OFFSET 5.0226 -0.0266342 0
              CHANNELS 3 Zrotation Xrotation Yrotation
              JOINT Head
              {
                OFFSET 6.69364 2.86102e-005 0
                CHANNELS 3 Zrotation Xrotation Yrotation
                End Site
                {
                  OFFSET 0 0 0
                }
              }
            }
          }
        }
      }
    }
  }
}
MOTION
Frames:	10
Frame Time:	0.0416667
-23.5241 93.3135 4.36505 101.356 30.9419 75.2123 -174.609 20.5153 78.1458 -48.912 15.0197 -2.4965 76.057 10.8603 0.989746 13.6651 -11.6367 7.85271 175.094 17.0507 83.3139 -89.1273 -11.7475 -4.24109 59.3051 -0.865243 -3.34188 20.9601 0.913616 8.86612 -0.0780266 7.94483 -89.1011 10.978 0.261081 1.76521 -0.694059 0.338498 1.75201 -23.2196 -0.281432 1.76208 -3.20698 -0.281429 1.76208 93.3412 -22.0087 -102.675 51.5953 -0.759706 3.38797 5.17099 -4.47504 -4.45027 -21.7917 0.99501 -11.9858 -89.3258 -45.4099 78.7516 -0.114785 -0.216556 -13.1601 2.16068 21.5626 -3.27642 7.16551 0.818422 6.45503 0.2053 7.07872 0.714286 -8.60371 6.59623 5.45672 
-19.3952 97.3935 1.24354 103.42 29.8782 78.491 -174.836 11.071 82.7312 -40.9019 15.1358 -1.5887 72.9827 9.12552 0.545175 14.6527 -10.6541 7.09989 175.595 21.6491 87.8131 -86.2481 0.00455865 -3.21272 62.3544 -2.25281 -4.0484 17.4503 1.82178 8.95741 -0.263527 8.09596 -89.7185 10.6827 -0.395125 0.595737 -0.98837 -0.368498 0.612542 -23.5233 -0.555888 0.449448 -3.51067 -0.555887 0.449453 93.6598 -18.747 -103.188 51.1793 -0.0725527 4.33175 4.34955 -2.75567 -4.40888 -19.7489 1.17298 -13.2387 -87.816 -38.276 79.6244 -3.79204 0.458237 -15.1404 2.0671 17.1717 -1.5465 8.55168 0.894078 5.89955 -5.32301 7.27147 2.85124 -7.31951 6.7145 5.96932 
-15.3198 102.742 -2.17967 106.344 29.4659 80.9646 -174.956 2.81025 86.7638 -31.8882 15.848 -0.192644 59.6163 -0.0446346 -0.941595 14.3911 -9.46481 3.95077 175.728 20.7927 90.748 -75.7297 0.0662121 -2.37067 63.2865 -1.97921 -4.24885 17.2422 2.06308 8.17008 -0.341476 8.30254 -90.3845 10.2646 -0.855986 -0.689432 -1.40622 -0.885521 -0.651097 -23.9411 -0.609238 -0.914813 -3.9285 -0.609247 -0.914816 93.3637 -16.2397 -104.998 50.2458 -0.431674 6.91233 5.31666 -5.30947 -4.89994 -19.1314 1.17949 -14.4556 -86.8347 -36.1531 80.8602 -6.42262 -0.877212 -16.3947 3.79695 18.5927 -3.36255 9.20053 0.724938 3.66364 -15.1332 6.44157 7.33964 -3.6089 6.34974 5.48428 
-11.2236 107.043 -5.19996 107.02 30.8585 82.4048 -175.408 1.40256 88.8922 -29.4538 21.2799 1.29121 48.6814 -7.36201 -3.54625 7.75098 -12.1436 0.791085 176.094 19.7265 91.5822 -63.538 -2.52576 -1.77631 65.2341 -2.61718 -2.16172 18.5927 1.8214 7.56541 -0.319865 8.33936 -90.7031 10.1865 -0.95809 -1.31419 -1.48473 -1.015 -1.27076 -24.0155 -0.518883 -1.54133 -4.00283 -0.518875 -1.54133 92.3586 -16.7212 -107.302 48.6108 -1.40054 10.3533 6.39155 -7.58842 -4.62207 -19.2657 1.12656 -14.9316 -86.4412 -33.7866 81.0438 -9.08926 -0.254747 -18.3213 4.17218 19.207 -4.50399 9.85404 0.68673 2.8674 -21.9376 4.88552 6.40878 -0.301298 5.38381 6.08676 
-7.26962 108.968 -7.5051 106.004 34.3756 81.8559 -175.873 6.03938 89.0024 -34.0151 23.8387 1.41087 46.6944 -8.57984 -4.38982 9.71273 -12.107 3.2366 176.028 19.9001 90.2623 -52.3938 -2.27618 -1.59728 68.5375 -4.25349 -1.5236 21.3328 1.49307 5.40812 -0.362907 8.3101 -90.6164 10.2475 -1.00462 -1.13827 -1.42352 -1.05373 -1.09296 -23.9561 -0.616115 -1.38753 -3.94345 -0.616103 -1.38753 92.1189 -17.9488 -107.291 48.9326 -1.40087 12.5152 7.0653 -8.42925 -3.92439 -18.0457 0.944525 -14.7172 -86.388 -33.9172 81.1706 -8.96813 0.983005 -21.6772 3.35539 19.5844 -4.0589 8.67133 0.668676 3.48844 -22.7566 3.47651 4.01631 0.982311 3.91855 5.25019 
-3.38952 109.347 -9.46759 106.683 37.374 80.851 -174.819 9.03463 89.9196 -33.4822 21.9203 0.274771 45.5713 -9.21485 -5.78365 18.1397 -8.48163 7.37196 176.362 16.8113 89.6078 -39.0005 -2.30233 -2.00235 71.4677 -5.64267 -0.0260436 23.9678 0.530753 6.48435 -0.315633 8.4358 -90.5077 9.99789 -0.859864 -0.936764 -1.67307 -0.900232 -0.898025 -24.2066 -0.53858 -1.15186 -4.19394 -0.53856 -1.15185 92.0005 -19.764 -106.718 49.9291 -0.316496 14.4677 6.86373 -8.16427 -4.05822 -17.7579 0.939136 -14.7469 -86.6112 -33.5481 80.6767 -11.6529 1.14698 -24.1634 2.79215 21.5451 -2.07454 7.47394 0.617819 3.83948 -22.1902 2.30707 0.693643 0.984769 2.52705 5.43318 
0.529379 108.029 -11.5464 106 40.0604 81.2692 -174.33 12.3735 90.8737 -28.7278 15.4115 -0.784687 49.4999 -7.10236 -4.77375 11.1386 -11.6473 4.16887 176.105 13.7623 89.1642 -24.6539 -7.61415 -1.62795 69.1955 -5.16104 -0.604301 27.6119 0.0277381 2.70297 -0.337866 8.44375 -90.4403 9.98265 -0.873444 -0.802168 -1.68822 -0.907906 -0.762944 -24.2226 -0.591997 -1.02757 -4.20997 -0.591984 -1.02757 91.6581 -21.1578 -106.881 51.0506 0.242416 15.5771 6.55081 -8.50937 -4.66759 -17.9368 0.94216 -14.7819 -86.5981 -35.0098 81.0313 -12.0456 3.48364 -23.1636 2.00983 20.002 -2.74997 8.32922 0.716223 4.24088 -20.8849 1.69068 -1.35503 0.331158 1.75497 4.75005 
4.49576 104.713 -13.6883 102.886 43.1444 83.6141 -175.53 17.8607 91.2585 -25.2871 12.1674 -0.472274 57.5905 -2.39571 -3.20156 7.57387 -15.6964 7.64571 174.915 14.7306 89.0068 -17.3513 -9.75454 0.145266 66.5456 -4.25582 -0.438669 29.0431 -0.305095 1.70927 -0.413752 8.34747 -90.4576 10.1748 -1.03313 -0.820756 -1.49597 -1.06826 -0.774497 -24.031 -0.738724 -1.0933 -4.01832 -0.738712 -1.0933 91.2785 -22.6015 -107.103 51.3237 -0.0275494 15.3115 6.38913 -7.60173 -5.33732 -18.0458 1.03932 -14.9997 -86.9182 -37.8105 81.0775 -12.8306 4.81604 -21.4669 1.73847 19.3703 -3.82203 8.155 0.823122 5.45357 -16.4708 1.30332 -3.5013 -1.76139 1.31459 4.9131 
8.32309 99.0458 -15.6502 100.168 45.0494 85.9729 -178.634 26.2247 92.0473 -32.5916 27.9826 2.38564 56.2991 -2.84287 -1.50368 5.10523 -16.2389 5.515 172.898 21.7863 89.4593 -27.8388 -7.96743 2.38326 66.6242 -3.63526 0.885838 30.6675 -0.68332 0.708549 -0.378713 8.36521 -90.469 10.1392 -0.968436 -0.84936 -1.53162 -1.00488 -0.80593 -24.0661 -0.668417 -1.10113 -4.05348 -0.668394 -1.10114 89.846 -25.9932 -108.713 49.1123 -0.930851 14.561 6.18109 -6.56764 -5.92012 -17.9143 1.12453 -15.2298 -88.038 -41.845 80.0465 -12.1707 5.70553 -19.9003 0.901864 18.9737 -3.46227 7.10116 0.823469 6.64179 -7.74661 0.891063 -5.59167 -5.54613 1.17945 4.1756 
11.7611 92.8734 -17.246 102.317 46.3846 85.4263 178.552 31.649 94.0757 -52.3389 30.6226 5.78323 67.2087 5.33456 0.830693 16.8814 -9.57911 8.06839 171.431 27.5663 90.5821 -42.5132 -13.4527 3.38335 66.2682 -3.28849 -0.208091 18.2395 1.90803 7.64576 -0.345831 8.56432 -90.515 9.74053 -0.92224 -0.94867 -1.93042 -0.963082 -0.907171 -24.4641 -0.594517 -1.18196 -4.45142 -0.594524 -1.18197 89.2857 -28.8394 -108.647 47.1252 -3.50489 12.4624 7.74057 -8.59244 -4.04626 -17.9221 0.868582 -14.3037 -90.0286 -46.3483 77.87 -11.4434 6.02813 -17.6981 -1.20195 19.6826 -0.00190228 6.8707 0.691125 5.27702 0.290467 0.390342 -5.65463 -6.48358 1.04155 3.79975 
